<?xml version="1.0" encoding="UTF-8"?>
<svg xmlns="http://www.w3.org/2000/svg" width="96pt" height="96pt" viewBox="0 0 96 96" version="1.1">
    <g id="surface1">
        <path style=" stroke:none;fill-rule:nonzero;fill:rgb(87.45098%,36.078431%,30.588235%);fill-opacity:1;"
              d="M 36.617188 40.921875 C 36.464844 40.773438 36.464844 40.542969 36.617188 40.390625 C 36.769531 40.242188 36.996094 40.242188 37.148438 40.390625 L 65.605469 68.851562 L 92.167969 42.289062 C 93.914062 40.542969 94.898438 38.191406 94.898438 35.609375 C 94.898438 33.03125 93.914062 30.753906 92.167969 28.933594 L 72.058594 8.898438 C 70.3125 7.152344 67.957031 6.164062 65.378906 6.164062 C 62.796875 6.164062 60.523438 7.152344 58.699219 8.898438 L 3.832031 63.691406 C 0.191406 67.410156 0.191406 73.402344 3.832031 77.046875 L 16.65625 89.871094 L 44.660156 89.871094 L 65.074219 69.457031 Z M 36.617188 40.921875 "/>
        <path style=" stroke:none;fill-rule:nonzero;fill:rgb(20%,64.705882%,82.352941%);fill-opacity:1;"
              d="M 36.617188 40.921875 C 36.464844 40.773438 36.464844 40.542969 36.617188 40.390625 C 36.769531 40.242188 36.996094 40.242188 37.148438 40.390625 L 65.605469 68.851562 L 92.167969 42.289062 C 93.914062 40.542969 94.898438 38.191406 94.898438 35.609375 C 94.898438 33.03125 93.914062 30.753906 92.167969 28.933594 L 72.058594 8.898438 C 70.3125 7.152344 67.957031 6.164062 65.378906 6.164062 C 62.796875 6.164062 60.523438 7.152344 58.699219 8.898438 L 31.609375 35.992188 L 65 69.382812 Z M 36.617188 40.921875 "/>
        <path style=" stroke:none;fill-rule:nonzero;fill:rgb(89.019608%,42.745098%,37.647059%);fill-opacity:1;"
              d="M 31.910156 36.292969 L 2.164062 66.117188 C 0.871094 68.621094 0.796875 71.660156 2.011719 74.316406 L 36.007812 40.316406 Z M 31.910156 36.292969 "/>
        <path style=" stroke:none;fill-rule:nonzero;fill:rgb(45.098039%,72.941176%,86.666667%);fill-opacity:1;"
              d="M 35.933594 40.316406 L 69.324219 7 C 68.109375 6.46875 66.746094 6.164062 65.378906 6.164062 C 63.859375 6.164062 62.417969 6.546875 61.128906 7.226562 L 31.910156 36.292969 Z M 35.933594 40.316406 "/>
        <path style=" stroke:none;fill-rule:nonzero;fill:rgb(0%,0%,0%);fill-opacity:1;"
              d="M 44.8125 91.011719 L 16.429688 91.011719 C 16.203125 91.011719 16.050781 90.933594 15.898438 90.78125 L 3.074219 77.882812 C -1.023438 73.785156 -1.023438 67.027344 3.074219 62.929688 L 3.605469 63.460938 L 3.074219 62.929688 L 57.941406 8.0625 C 62.039062 3.964844 68.71875 3.964844 72.816406 8.0625 L 92.925781 28.175781 C 97.023438 32.273438 97.023438 39.027344 92.925781 43.125 L 45.34375 90.78125 C 45.191406 90.933594 45.039062 91.011719 44.8125 91.011719 Z M 16.734375 89.492188 L 44.507812 89.492188 L 91.863281 42.0625 C 93.535156 40.390625 94.519531 38.117188 94.519531 35.6875 C 94.519531 33.257812 93.609375 30.980469 91.863281 29.3125 L 71.753906 9.203125 C 68.261719 5.710938 62.496094 5.710938 59.003906 9.203125 L 4.136719 64.070312 C 0.644531 67.558594 0.644531 73.402344 4.136719 76.894531 Z M 16.734375 89.492188 "/>
        <path style=" stroke:none;fill-rule:nonzero;fill:rgb(0%,0%,0%);fill-opacity:1;"
              d="M 69.25 91.011719 L 16.886719 91.011719 C 16.429688 91.011719 16.125 90.707031 16.125 90.25 C 16.125 89.796875 16.429688 89.492188 16.886719 89.492188 L 69.25 89.492188 C 69.703125 89.492188 70.007812 89.796875 70.007812 90.25 C 70.007812 90.707031 69.703125 91.011719 69.25 91.011719 Z M 69.25 91.011719 "/>
        <path style=" stroke:none;fill-rule:nonzero;fill:rgb(0%,0%,0%);fill-opacity:1;"
              d="M 65.453125 69.988281 C 65.226562 69.988281 65.074219 69.914062 64.921875 69.761719 L 36.3125 41.226562 C 36.007812 40.921875 36.007812 40.46875 36.3125 40.164062 C 36.617188 39.859375 37.070312 39.859375 37.375 40.164062 L 65.984375 68.699219 C 66.289062 69.003906 66.289062 69.457031 65.984375 69.761719 C 65.835938 69.914062 65.683594 69.988281 65.453125 69.988281 Z M 65.453125 69.988281 "/>
        <path style=" stroke:none;fill-rule:nonzero;fill:rgb(0%,0%,0%);fill-opacity:1;"
              d="M 84.425781 87.976562 L 48 87.976562 C 47.542969 87.976562 47.242188 87.671875 47.242188 87.214844 C 47.242188 86.761719 47.542969 86.457031 48 86.457031 L 84.425781 86.457031 C 84.882812 86.457031 85.1875 86.761719 85.1875 87.214844 C 85.1875 87.671875 84.882812 87.976562 84.425781 87.976562 Z M 84.425781 87.976562 "/>
    </g>
</svg>
